<?xml version="1.0" standalone="no"?>
<!DOCTYPE svg PUBLIC "-//W3C//DTD SVG 20010904//EN"
 "http://www.w3.org/TR/2001/REC-SVG-20010904/DTD/svg10.dtd">
<svg version="1.0" xmlns="http://www.w3.org/2000/svg"
 width="600.000000pt" height="600.000000pt" viewBox="0 0 600.000000 600.000000"
 preserveAspectRatio="xMidYMid meet">
<metadata>
Created by potrace 1.11, written by Peter Selinger 2001-2013
</metadata>
<g transform="translate(0.000000,600.000000) scale(0.100000,-0.100000)"
fill="#000000" stroke="none">
<path d="M130 5775 l0 -215 748 0 747 0 -80 -46 c-384 -218 -736 -551 -989
-932 -260 -392 -410 -795 -477 -1282 -20 -145 -17 -575 5 -725 82 -563 284
-1036 625 -1460 57 -72 68 -91 61 -109 -4 -11 -83 -203 -175 -426 -92 -223
-176 -426 -186 -452 l-19 -48 243 0 242 0 126 304 125 305 70 -56 c187 -150
490 -324 724 -416 218 -87 465 -151 700 -184 158 -21 575 -24 730 -5 225 29
475 90 687 167 237 87 582 282 777 438 l70 56 125 -305 126 -304 242 0 243 0
-19 48 c-10 26 -94 229 -186 452 -92 223 -171 415 -175 426 -7 18 4 37 61 109
341 424 543 897 625 1460 22 150 25 580 5 725 -67 487 -217 890 -477 1282
-253 381 -605 714 -989 932 l-80 46 748 0 747 0 0 215 0 215 -2875 0 -2875 0
0 -215z m2456 -363 c-2 -4 -363 -878 -801 -1942 -438 -1064 -800 -1941 -804
-1948 -5 -10 -27 16 -69 80 -203 315 -328 655 -384 1053 -20 137 -16 503 6
650 84 562 332 1045 737 1440 192 187 355 306 580 424 199 104 389 174 611
226 114 26 131 29 124 17z m1040 -38 c169 -42 295 -89 469 -174 253 -123 432
-249 639 -450 409 -398 657 -881 742 -1445 22 -147 26 -513 6 -650 -56 -398
-181 -738 -384 -1053 -42 -64 -64 -90 -69 -80 -4 7 -366 884 -804 1948 -438
1064 -799 1938 -802 1943 -7 11 46 1 203 -39z m-846 -1784 l0 -1090 -451 0
c-271 0 -449 4 -447 9 13 37 894 2171 896 2171 1 0 2 -490 2 -1090z m912 -25
c237 -572 432 -1046 435 -1052 4 -10 -89 -13 -446 -13 l-451 0 1 1088 c1 980
2 1084 16 1052 8 -19 208 -503 445 -1075z m-912 -2305 c0 -434 -3 -790 -7
-790 -37 1 -237 35 -329 55 -238 54 -519 168 -734 299 -96 59 -279 194 -358
265 l-44 38 175 424 c97 233 183 441 192 462 l15 37 545 0 545 0 0 -790z
m1732 326 l190 -459 -43 -38 c-298 -266 -709 -477 -1093 -564 -92 -20 -292
-54 -328 -55 -5 0 -8 356 -8 790 l0 790 546 -2 546 -3 190 -459z"/>
</g>
</svg>
